HIERARCHY
ROOT ui
{
	 OFFSET 0 0 0
	 CHANNELS 3 XPosition YPosition Z Position
	 EndSite
	 {
	 OFFSET 0 -1 0
	 }
}
ROOT li
{
	 OFFSET 0 0 0
	 CHANNELS 3 XPosition YPosition Z Position
	 EndSite
	 {
	 OFFSET 0 -1 0
	 }
}
ROOT ul
{
	 OFFSET 0 0 0
	 CHANNELS 3 XPosition YPosition Z Position
	 EndSite
	 {
	 OFFSET 0 -1 0
	 }
}
ROOT ll
{
	 OFFSET 0 0 0
	 CHANNELS 3 XPosition YPosition Z Position
	 EndSite
	 {
	 OFFSET 0 -1 0
	 }
}
ROOT tt
{
	 OFFSET 0 0 0
	 CHANNELS 3 XPosition YPosition Z Position
	 EndSite
	 {
	 OFFSET 0 -1 0
	 }
}
ROOT tb
{
	 OFFSET 0 0 0
	 CHANNELS 3 XPosition YPosition Z Position
	 EndSite
	 {
	 OFFSET 0 -1 0
	 }
}
ROOT td
{
	 OFFSET 0 0 0
	 CHANNELS 3 XPosition YPosition Z Position
	 EndSite
	 {
	 OFFSET 0 -1 0
	 }
}
ROOT v
{
	 OFFSET 0 0 0
	 CHANNELS 3 XPosition YPosition Z Position
	 EndSite
	 {
	 OFFSET 0 -1 0
	 }
}
ROOT bn
{
	 OFFSET 0 0 0
	 CHANNELS 3 XPosition YPosition Z Position
	 EndSite
	 {
	 OFFSET 0 -1 0
	 }
}
MOTION
Frames: 21
Frame Time: 0.002
-1.0177300125360489E-4	-0.0016187219619750977	0		0.455607666015625	-2.34210888671875	0		-1.0955118408203126	-0.06192349243164062	0		-0.8365439453125	-2.2864921875	0		1.448665771484375	-0.43141244506835935	0		2.998520263671875	0.10097957611083984	0		4.39707958984375	0.2162878112792969	0		5.5365966796875	0.07967988586425781	0		-0.126443603515625	5.93705126953125	0		
-0.07782535552978516	2.946920096874237E-4	0		0.40492532348632815	-2.33474658203125	0		-1.1582601318359376	-0.06127365875244141	0		-0.8322750854492188	-2.28218115234375	0		1.451972412109375	-0.42815216064453127	0		2.9987646484375	0.100252197265625	0		4.40216796875	0.20741944885253907	0		5.54513623046875	0.09371215057373047	0		-0.11180286407470703	5.947140625	0		
0.005672783851623535	0.011998032569885254	0		0.4351302490234375	-2.3340009765625	0		-1.149907958984375	-0.05604792404174805	0		-0.8660162963867187	-2.27812939453125	0		1.4201832275390625	-0.4292029113769531	0		3.01500048828125	0.09920404052734375	0		4.4185263671875	0.2123309326171875	0		5.545375	0.09291090393066406	0		-0.1114005355834961	5.9464970703125	0		
0.010792339324951172	0.006249934196472168	0		0.4352935791015625	-2.334660888671875	0		-1.08078271484375	-0.0620418586730957	0		-0.8298985595703126	-2.281473876953125	0		1.4554652099609375	-0.42658395385742187	0		2.999225830078125	0.09880011749267578	0		4.40193359375	0.22091120910644532	0		5.54559716796875	0.09212744140625	0		-0.1110370864868164	5.9458505859375	0		
0.00200949501991272	0.006783586025238037	0		0.46035797119140626	-2.33981201171875	0		-1.0846475830078126	-0.06558536529541016	0		-0.8677409057617187	-2.281345703125	0		1.412620849609375	-0.42840109252929687	0		3.036515380859375	0.10235742950439453	0		4.41383203125	0.20494265747070312	0		5.5516337890625	0.08325433349609375	0		-0.1117037353515625	5.94622705078125	0		
-0.08190937805175781	0.002823530912399292	0		0.4314925537109375	-2.339876220703125	0		-1.084484619140625	-0.06620455169677734	0		-0.8337176513671875	-2.287644775390625	0		1.455550537109375	-0.4409128112792969	0		2.999588623046875	0.09741483306884766	0		4.39816162109375	0.21255815124511718	0		5.5459599609375	0.09065337371826172	0		-0.1114503173828125	5.94559326171875	0		
0.004143613815307617	-0.0025119390487670897	0		0.4336387939453125	-2.33854248046875	0		-1.1532618408203126	-0.06144014739990234	0		-0.8566656494140625	-2.290798828125	0		1.4177833251953125	-0.4357920227050781	0		2.999719482421875	0.09676348114013672	0		4.3982939453125	0.2118929443359375	0		5.54609033203125	0.08997682189941406	0		-0.11028173065185547	5.943953125	0		
0.0113818359375	0.003742573022842407	0		0.4378271789550781	-2.334229736328125	0		-1.145024169921875	-0.05520035934448242	0		-0.8145045166015625	-2.28823828125	0		1.42989892578125	-0.43564242553710936	0		3.01699609375	0.1048045883178711	0		4.40021484375	0.20223056030273437	0		5.550349609375	0.09726597595214843	0		-0.1091750717163086	5.9423291015625	0		
0.006560713768005371	0.008257144927978516	0		0.4379076843261719	-2.3348134765625	0		-1.0760394287109376	-0.061161285400390626	0		-0.8263020629882812	-2.2825849609375	0		1.459191162109375	-0.42580584716796877	0		3.015894775390625	0.09524516296386719	0		4.40947021484375	0.21046946716308593	0		5.54626904296875	0.08876873016357421	0		-0.11008272552490235	5.9427646484375	0		
0.007464752197265625	-3.2283699512481687E-4	0		0.46084259033203123	-2.34282958984375	0		-1.0900123291015624	-0.06345040893554688	0		-0.8313020629882812	-2.287051513671875	0		1.45899853515625	-0.43935540771484377	0		2.999961181640625	0.09502223968505859	0		4.39369580078125	0.21825404357910155	0		5.54633203125	0.0882432632446289	0		-0.11103755950927735	5.94322216796875	0		
-4.585849940776825E-4	2.9862400889396666E-4	0		0.4319314880371094	-2.342783935546875	0		-1.0840572509765625	-0.0691198959350586	0		-0.8312196044921875	-2.287599365234375	0		1.4590589599609376	-0.4398758239746094	0		3.016011962890625	0.09420139312744141	0		4.40544677734375	0.2025325622558594	0		5.5422275390625	0.07985305023193359	0		-0.11203337860107422	5.94370263671875	0		
-4.077329933643341E-4	-2.14696004986763E-4	0		0.4610169067382813	-2.3438671875	0		-1.0840052490234375	-0.06965184783935546	0		-0.8202908935546875	-2.296344482421875	0		1.4240247802734376	-0.4446661376953125	0		3.000064208984375	0.09405854034423829	0		4.398634765625	0.20923300170898437	0		5.546435546875	0.08735381317138671	0		-0.11012496185302735	5.94114794921875	0		
0.011679959297180176	0.0010580610036849975	0		0.4102683715820313	-2.336332275390625	0		-1.14880126953125	-0.061872543334960936	0		-0.818150390625	-2.294890869140625	0		1.4671162109375	-0.44397845458984375	0		3.016109375	0.09331854248046875	0		4.40967822265625	0.2086234130859375	0		5.54648388671875	0.08698841857910156	0		-0.11118608856201172	5.94167724609375	0		
0.006832757949829102	0.005694146156311035	0		0.4632734375	-2.342835693359375	0		-1.075761474609375	-0.06381575775146485	0		-0.8288755493164063	-2.287158447265625	0		1.4241492919921874	-0.44554736328125	0		3.00016259765625	0.09325424194335938	0		4.3987275390625	0.20849696350097657	0		5.5465341796875	0.08667379760742187	0		-0.12550777435302735	5.93049169921875	0		
0.002810089111328125	0.0013375020027160645	0		0.4344071960449219	-2.34268310546875	0		-1.089740478515625	-0.06600773620605468	0		-0.8307885131835937	-2.289580810546875	0		1.459311279296875	-0.44163568115234375	0		3.033189453125	0.09125518798828125	0		4.4049345703125	0.21607460021972658	0		5.54658740234375	0.08640726470947266	0		-0.1114185562133789	5.94077099609375	0		
-1.8945099413394928E-4	-0.0020144689083099365	0		0.45740362548828123	-2.350534423828125	0		-1.0896788330078124	-0.0664571075439453	0		-0.8327097778320313	-2.29298095703125	0		1.4181561279296875	-0.4531836853027344	0		2.995411376953125	0.09969778442382812	0		4.4098271484375	0.2077159881591797	0		5.54664404296875	0.08618517303466797	0		-0.1267379455566406	5.93165380859375	0		
-0.048038753509521484	0.0025450639724731447	0		0.4087603759765625	-2.339939208984375	0		-1.15262158203125	-0.06664067840576172	0		-0.8305034790039062	-2.2904404296875	0		1.4643448486328126	-0.4484293518066406	0		3.00033056640625	0.09232347106933594	0		4.3988837890625	0.20770906066894532	0		5.546703125	0.08600312805175782	0		-0.11074125671386718	5.938943359375	0		
0.011977314949035645	-0.0010053210258483887	0		0.43895352172851565	-2.338880615234375	0		-1.144415283203125	-0.06021083068847656	0		-0.8493224487304688	-2.289464111328125	0		1.409617919921875	-0.4386542663574219	0		3.04158349609375	0.10126564025878906	0		4.403080078125	0.2144366455078125	0		5.550923828125	0.09377577209472657	0		-0.1099280242919922	5.9375537109375	0		
0.012055444717407226	-0.0013490350246429443	0		0.4391272277832031	-2.33920703125	0		-1.0713685302734375	-0.063038330078125	0		-0.8281351318359375	-2.289256591796875	0		1.4645262451171874	-0.44902154541015626	0		2.995607421875	0.09895169830322266	0		4.4051689453125	0.21523291015625	0		5.550998046875	0.09365853118896485	0		-0.11205294799804688	5.939244140625	0		
0.007250306129455567	0.003424607992172241	0		0.4621778259277344	-2.346963134765625	0		-1.08346435546875	-0.07316917419433594	0		-0.8279447021484375	-2.289614990234375	0		1.4246678466796876	-0.44749960327148436	0		2.991581787109375	0.09283135223388672	0		4.40111865234375	0.20817112731933593	0		5.54693359375	0.08564437866210937	0		-0.11318338775634766	5.93993505859375	0		
0.003290848970413208	-8.012139797210693E-4	0		0.4333974914550781	-2.346681396484375	0		-1.083343017578125	-0.0735186767578125	0		-0.7958762817382813	-2.297579833984375	0		1.4586214599609375	-0.4574113464355469	0		3.01255517578125	0.08523795318603515	0		4.3943671875	0.21518133544921875	0		5.54704833984375	0.08556549835205078	0		-0.12750081634521485	5.9299013671875	0		
